<svg width="129" height="25" viewBox="0 0 129 25" fill="none" xmlns="http://www.w3.org/2000/svg">
<path d="M39.2266 5.57812H42.5547C44.1016 5.57812 45.2474 5.85938 45.9922 6.42188C46.7422 6.98438 47.1172 7.84375 47.1172 9C47.1172 9.67188 46.9323 10.2708 46.5625 10.7969C46.1927 11.3177 45.6693 11.7266 44.9922 12.0234C46.8255 14.763 47.9453 16.4219 48.3516 17H45.6641L42.9375 12.6172H41.6484V17H39.2266V5.57812ZM41.6484 7.5625V10.6484H42.4297C43.1953 10.6484 43.7604 10.5208 44.125 10.2656C44.4896 10.0104 44.6719 9.61198 44.6719 9.07031C44.6719 8.52865 44.487 8.14323 44.1172 7.91406C43.7526 7.67969 43.1745 7.5625 42.3828 7.5625H41.6484ZM59.3906 17H56.7812L55.9453 14.2812H51.7891L50.9609 17H48.3516L52.3828 5.53125H55.3438L59.3906 17ZM55.375 12.25L54.0781 8.07031C53.9792 7.72656 53.9115 7.47135 53.875 7.30469C53.7031 7.96615 53.2109 9.61458 52.3984 12.25H55.375ZM65.4531 17.1562C63.7917 17.1562 62.5208 16.6536 61.6406 15.6484C60.7604 14.6432 60.3203 13.1953 60.3203 11.3047C60.3203 11.2786 60.3203 11.2526 60.3203 11.2266C60.3203 10.0807 60.5365 9.0651 60.9688 8.17969C61.401 7.28906 62.0182 6.60677 62.8203 6.13281C63.6224 5.65365 64.5417 5.41406 65.5781 5.41406C65.6146 5.41406 65.6484 5.41406 65.6797 5.41406C66.7995 5.41406 67.9141 5.68229 69.0234 6.21875L68.2422 8.1875C67.1849 7.68229 66.3307 7.42969 65.6797 7.42969C64.7682 7.42969 64.0625 7.77344 63.5625 8.46094C63.0625 9.14323 62.8125 10.0964 62.8125 11.3203C62.8125 13.8672 63.7682 15.1406 65.6797 15.1406C66.4766 15.1406 67.4479 14.9401 68.5938 14.5391V16.5703C67.6562 16.9609 66.6094 17.1562 65.4531 17.1562ZM80.6406 17H78.0312L77.1953 14.2812H73.0391L72.2109 17H69.6016L73.6328 5.53125H76.5938L80.6406 17ZM76.625 12.25L75.3281 8.07031C75.2292 7.72656 75.1615 7.47135 75.125 7.30469C74.9531 7.96615 74.4609 9.61458 73.6484 12.25H76.625ZM82.0859 5.57812H85.4141C86.9609 5.57812 88.1068 5.85938 88.8516 6.42188C89.6016 6.98438 89.9766 7.84375 89.9766 9C89.9766 9.67188 89.7917 10.2708 89.4219 10.7969C89.0521 11.3177 88.5286 11.7266 87.8516 12.0234C89.6849 14.763 90.8047 16.4219 91.2109 17H88.5234L85.7969 12.6172H84.5078V17H82.0859V5.57812ZM84.5078 7.5625V10.6484H85.2891C86.0547 10.6484 86.6198 10.5208 86.9844 10.2656C87.349 10.0104 87.5312 9.61198 87.5312 9.07031C87.5312 8.52865 87.3464 8.14323 86.9766 7.91406C86.612 7.67969 86.0339 7.5625 85.2422 7.5625H84.5078Z" fill="white"/>
<path d="M49.2222 20H57L54.4074 23H47L49.2222 20Z" fill="#BA0000"/>
<path d="M75.2222 20H83L80.4074 23H73L75.2222 20Z" fill="#BA0000"/>
<path d="M62.2222 20H70L67.4074 23H60L62.2222 20Z" fill="#BA0000"/>
</svg>
