<svg width="115" height="43" viewBox="0 0 115 43" fill="none" xmlns="http://www.w3.org/2000/svg">
<path d="M10.1123 10.584H16.3525C19.2529 10.584 21.4014 11.1113 22.7979 12.166C24.2041 13.2207 24.9072 14.832 24.9072 17C24.9072 18.2598 24.5605 19.3828 23.8672 20.3691C23.1738 21.3457 22.1924 22.1123 20.9229 22.6689C24.3604 27.8057 26.46 30.916 27.2217 32H22.1826L17.0703 23.7822H14.6533V32H10.1123V10.584ZM14.6533 14.3047V20.0908H16.1182C17.5537 20.0908 18.6133 19.8516 19.2969 19.373C19.9805 18.8945 20.3223 18.1475 20.3223 17.1318C20.3223 16.1162 19.9756 15.3936 19.2822 14.9639C18.5986 14.5244 17.5146 14.3047 16.0303 14.3047H14.6533ZM47.9199 32H43.0273L41.46 26.9023H33.667L32.1143 32H27.2217L34.7803 10.4961H40.332L47.9199 32ZM40.3906 23.0938L37.959 15.2568C37.7734 14.6123 37.6465 14.1338 37.5781 13.8213C37.2559 15.0615 36.333 18.1523 34.8096 23.0938H40.3906ZM59.2871 32.293C56.1719 32.293 53.7891 31.3506 52.1387 29.4658C50.4883 27.5811 49.6631 24.8662 49.6631 21.3213C49.6631 21.2725 49.6631 21.2236 49.6631 21.1748C49.6631 19.0264 50.0684 17.1221 50.8789 15.4619C51.6895 13.792 52.8467 12.5127 54.3506 11.624C55.8545 10.7256 57.5781 10.2764 59.5215 10.2764C59.5898 10.2764 59.6533 10.2764 59.7119 10.2764C61.8115 10.2764 63.9014 10.7793 65.9814 11.7852L64.5166 15.4766C62.5342 14.5293 60.9326 14.0557 59.7119 14.0557C58.0029 14.0557 56.6797 14.7002 55.7422 15.9893C54.8047 17.2686 54.3359 19.0557 54.3359 21.3506C54.3359 26.126 56.1279 28.5137 59.7119 28.5137C61.2061 28.5137 63.0273 28.1377 65.1758 27.3857V31.1943C63.418 31.9268 61.4551 32.293 59.2871 32.293ZM87.7637 32H82.8711L81.3037 26.9023H73.5107L71.958 32H67.0654L74.624 10.4961H80.1758L87.7637 32ZM80.2344 23.0938L77.8027 15.2568C77.6172 14.6123 77.4902 14.1338 77.4219 13.8213C77.0996 15.0615 76.1768 18.1523 74.6533 23.0938H80.2344ZM90.4736 10.584H96.7139C99.6143 10.584 101.763 11.1113 103.159 12.166C104.565 13.2207 105.269 14.832 105.269 17C105.269 18.2598 104.922 19.3828 104.229 20.3691C103.535 21.3457 102.554 22.1123 101.284 22.6689C104.722 27.8057 106.821 30.916 107.583 32H102.544L97.4316 23.7822H95.0146V32H90.4736V10.584ZM95.0146 14.3047V20.0908H96.4795C97.915 20.0908 98.9746 19.8516 99.6582 19.373C100.342 18.8945 100.684 18.1475 100.684 17.1318C100.684 16.1162 100.337 15.3936 99.6436 14.9639C98.96 14.5244 97.876 14.3047 96.3916 14.3047H95.0146Z" fill="black"/>
<path d="M27.4444 37H43L37.8148 43H23L27.4444 37Z" fill="#BA0000"/>
<path d="M75.4444 37H91L85.8148 43H71L75.4444 37Z" fill="#BA0000"/>
<path d="M51.4444 37H67L61.8148 43H47L51.4444 37Z" fill="#BA0000"/>
</svg>
